PathFileType	4	(X/Y/Z)	Walk1_0-155.trc
DataRate	CameraRate	NumFrames	NumMarkers	Units	OrigDataRate	OrigDataStartFrame	OrigNumFrames
30	30	6	22	m	30	19	155
Frame#	Time	Hip			RHip			RKnee			RAnkle			RBigToe			RSmallToe			RHeel			LHip			LKnee			LAnkle			LBigToe			LSmallToe			LHeel			Neck			Head			Nose			RShoulder			RElbow			RWrist			LShoulder			LElbow			LWrist		
		X1	Y1	Z1	X2	Y2	Z2	X3	Y3	Z3	X4	Y4	Z4	X5	Y5	Z5	X6	Y6	Z6	X7	Y7	Z7	X8	Y8	Z8	X9	Y9	Z9	X10	Y10	Z10	X11	Y11	Z11	X12	Y12	Z12	X13	Y13	Z13	X14	Y14	Z14	X15	Y15	Z15	X16	Y16	Z16	X17	Y17	Z17	X18	Y18	Z18	X19	Y19	Z19	X20	Y20	Z20	X21	Y21	Z21	X22	Y22	Z22
20	0.6666666666666666	-2.498210720336704	0.844927924107796	0.3205622561622891	-2.4609518253335527	0.8318561761323598	0.4160313196628431	-2.319658345107137	0.5328042695812184	0.4425124912250083	-2.466291030046422	0.15071213039317252	0.48456386395181006	-2.3257419550318446	0.010970686484186327	0.5255241645898358	-2.348290960360923	0.03425524097277022	0.5783420662539704	-2.539533119495926	0.07169096589004345	0.45893485520538346	-2.518612631887548	0.8109115653937949	0.2261291666740379	-2.4972796994583506	0.4610785587431297	0.23257321708703443	-2.573836070035588	0.0800377058610011	0.27091866604150716	-2.3830195231965927	-0.006375084379769728	0.26701349820364356	-2.4287488972374796	-0.011785259965546031	0.208834072738398	-2.6232662982921293	-0.0014931404909216367	0.2789345941372244	-2.4871226656429504	1.5254098978535717	0.2796465709364071	-2.4348895401789044	1.7770260571912406	0.2861764294289585	-2.3431846924064628	1.642218291553263	0.27821874271013936	-2.5277229920424005	1.4097787407941977	0.4631308718267768	-2.497757683711339	1.0960892523548718	0.5464853504343112	-2.4088042901051243	0.858057662038124	0.5644776009029331	-2.5493637933686166	1.4165066356014306	0.06744280598456347	-2.5098793358800906	1.093263200510525	0.06195243540071621	-2.460469616074006	0.8423084843837638	0.07543350856319142
21	0.7	-2.486154050638413	0.8448791076024584	0.3178237459851223	-2.446172870699433	0.8414382321900573	0.41013562320968755	-2.296149965011385	0.5485035337698297	0.44264720932840734	-2.45163420958675	0.13889750176458485	0.4692387462834701	-2.2839166733182483	0.03509150683088586	0.5149419163601526	-2.3197316868410947	0.046466437646678696	0.5644838772737771	-2.5038328035064596	0.06647673427174398	0.45215398081079206	-2.5163858457293844	0.816762887495683	0.22341322301419606	-2.49448994647703	0.4677546005346256	0.23162026623368748	-2.5711509281726315	0.08092473860376116	0.2685995888519818	-2.381479108107926	-0.006168003443787754	0.26650612962785686	-2.431042905833122	-0.012227933321603868	0.21080742391855403	-2.6313912255471283	-0.005567853828790008	0.2856207575819716	-2.475856258030965	1.5287173289100242	0.2768444407407485	-2.416937411100344	1.7855005318962622	0.28502278512700174	-2.3338565694283275	1.6424943671035779	0.27990717304605567	-2.5192766263028323	1.414893800671216	0.46641599160246044	-2.4955451281412366	1.0975373712025513	0.5444416847010409	-2.4101775507260395	0.8579736785213042	0.5657608082262816	-2.5386017522094795	1.4173944394828495	0.05478906155484406	-2.4968844555885505	1.0947178934949868	0.061631664432979336	-2.448599123129454	0.843475113079757	0.07240345285478558
22	0.7333333333333333	-2.4723305052254556	0.8482517844569982	0.3151121991952581	-2.4314441810688323	0.8447195505588672	0.40474213846425566	-2.2805578596004814	0.5506634440063182	0.4385665240608362	-2.4060469666321453	0.14068365488869264	0.46270223439268565	-2.234299443598399	0.02257084799271248	0.4980373064382995	-2.2709217625207736	0.04836211011610352	0.5438992641242925	-2.4601483517798437	0.06405602826348153	0.44893041690072616	-2.507798003124482	0.8177356321739618	0.22183164679392314	-2.4902144735683285	0.4666323843037855	0.22724064546995318	-2.5704153914494494	0.08235953120700559	0.26509287838005624	-2.3778306894733747	-0.008591824867311878	0.26317205795902204	-2.428169562819403	-0.01425845163285756	0.210360460876971	-2.6313105970217645	-0.008252370021488858	0.28633255985568157	-2.464716510541113	1.528317062209683	0.2777752318905048	-2.4036163578237937	1.7866150917458217	0.28335512750438313	-2.3207009059400803	1.6409552567445425	0.280893456207966	-2.506211661969571	1.4140946107525612	0.4669259098425761	-2.489280853032241	1.097520400324532	0.5432361418315732	-2.4064365104296797	0.8522507755406611	0.5628898514359744	-2.526911683935811	1.4170143102307649	0.05139175356458015	-2.4872558766075366	1.096267170013884	0.05775550374571274	-2.4394855891424307	0.8451521711660027	0.06912254774909675
23	0.7666666666666667	-2.461517342304824	0.8513579260874565	0.3169602022358685	-2.4160736584561593	0.8471578672951883	0.40760069661239173	-2.26897585405782	0.5475844602377262	0.43652697099899856	-2.3554925098485464	0.1352049698153201	0.47257204069906944	-2.1698360455073913	0.026673240114617174	0.48237086024850234	-2.200260077171727	0.034508464306349455	0.5286184168184143	-2.407841947541502	0.05984750484791981	0.44797362728223133	-2.498127799714308	0.8213589299499828	0.22349268224774813	-2.4825863218597775	0.46408381924286535	0.22838207295131804	-2.5659005524341723	0.08519011024844307	0.261098173865674	-2.3774677820150942	-0.01364426936039298	0.26550242654961914	-2.430697052138057	-0.01695220929631979	0.21173071430527032	-2.6306516151864408	-0.010172091422628881	0.2836792829798354	-2.4530022699338567	1.5297321385831577	0.2761555614520284	-2.3964345983318824	1.7859473565759236	0.2891670326455361	-2.310086793353394	1.6493924042704868	0.3042604582313969	-2.496173185604901	1.415595703053117	0.4636890910163236	-2.4842681486141243	1.09783580598579	0.5451173972584595	-2.409871828935496	0.8511472541884152	0.5639415467757392	-2.517574169158489	1.4190100630249138	0.052930631590189306	-2.4731436303879177	1.0973855162855195	0.06070111412570495	-2.4226868891795887	0.8473803329763865	0.07029614414569155
24	0.8	-2.4483345598059825	0.8475766661534543	0.3156215030082257	-2.402244867172145	0.8476263825268497	0.40406318910719324	-2.2617279268133212	0.5461333972334944	0.4317219974618857	-2.3114948021401505	0.12193213871689026	0.4729310432618993	-2.1035642118815265	0.04857359716684397	0.48860928616458427	-2.1430221713119373	0.03767349383838979	0.5313276636156559	-2.348893525984038	0.06762739015347784	0.4627398788536433	-2.4858926206253584	0.8193184173376032	0.22356586479251503	-2.4805884253082784	0.46084264771705674	0.22625761498984595	-2.5887922822830243	0.055231758365681005	0.2859188296564586	-2.375874521794351	-0.01499170909772225	0.2658567865709291	-2.4254678696570657	-0.017305783934269816	0.21236007346247515	-2.6297947344095305	-0.011869452399307496	0.28392525194343476	-2.4399624728424807	1.5282426385284305	0.2736675325402482	-2.3757745076439902	1.783921623780545	0.2806844234390518	-2.2941371452183743	1.648404231447544	0.30352736656083246	-2.4820744660374277	1.4109549835576454	0.45822007713605134	-2.4778492791885456	1.0974329741560058	0.5447992340076734	-2.4092990517479365	0.8453857977643392	0.5652617646451781	-2.505029946913718	1.4179600365258247	0.04796315702628721	-2.4583714446005898	1.0964983939205768	0.05878110821304843	-2.4090407852162476	0.8463180655621041	0.07081950331734777
25	0.8333333333333334	-2.43174504431902	0.8546516994579374	0.3150336096574035	-2.3790388117795467	0.8392763659475626	0.4119791280137051	-2.2517063590934114	0.5375128125558586	0.430902312238426	-2.2593411692889362	0.11932418920289993	0.4632705943249037	-2.040733839299702	0.06026435240994526	0.4848941055518998	-2.079663267454389	0.04906918996325033	0.5334218857085747	-2.2948460456943836	0.06570223456156675	0.46458496286887113	-2.464742224633176	0.8123759522080621	0.22705037748850607	-2.4784339770096535	0.45086537591737	0.23885639926321175	-2.5673102036284514	0.08164012253090033	0.2659274297258562	-2.3764359548295	-0.01454142319573878	0.2681144983002557	-2.4213470079698824	-0.012865708617365345	0.21479913059106565	-2.6275873506801806	-0.009646145587319707	0.28218180216708116	-2.424169287231672	1.5247563463191793	0.2757690771838595	-2.369938481915347	1.7820374811003021	0.2834986429779931	-2.2784281964504616	1.6484114928909692	0.30007187154628173	-2.466100426958803	1.4100867985017027	0.46237614585153913	-2.4655905135050538	1.0959618581745767	0.5470164781018746	-2.40770380685466	0.8509145006675854	0.5681888574325072	-2.4848463862090413	1.4166522016752363	0.05828162345957759	-2.4394022408852045	1.0938477124785373	0.06431988738131796	-2.384444660380711	0.8481158317451217	0.07781773056882259
